# xmcd
#
# Track frame offsets:
#	150
#	14437
#	28739
#	46145
#	60085
#	74477
#	87538
#	98011
#	113532
#	126333
#	140052
#	152356
#	166183
#	181222
#	195424
#	209766
#	222902
#	235730
#	248274
#	263006
#
# Disc length: 3662 seconds
#
# Revision: 0
# Processed by: cddbd v1.5.2PL0 Copyright (c) Steve Scherf et al.
# Submitted via: audiograbber 1.83.01
#
DISCID=090e4c14
DTITLE=Bing Crosby,Bob Hope,Vaughn Monroe, Dinah Shore, Tommy Dorsey - 40 Hits 
DTITLE=and Memories of 1945
DYEAR=1939
DGENRE=
TTITLE0=The Andrews Sisters - Rum and Coca cola
TTITLE1=Perry como - Till the end of time
TTITLE2=Les Brown &his Orchestra, Vocal by Doris day - Sentimental Journey
TTITLE3=Johnny Mercer - On the Atchison, Topeka and the Santa Fe
TTITLE4=Vaughn Monroe and his Orchestra - There! I've said it again
TTITLE5=Bing Crosby with carmen cavallaro - I can't begin to tell you
TTITLE6=Sammy Kaye - Chickery Chick
TTITLE7=Harry James and his vocal lists by Kitty kallen - It's been a long, lon
TTITLE7=g time
TTITLE8=The Pied Pipers - Dream
TTITLE9=Dick Haynes and Helen Forrest - I'll buy that dream
TTITLE10=Stan Kenton and his Orchestra - Tampico
TTITLE11=Russ Porgan and his Orchestra - There goes that song again
TTITLE12=Woody Herman - Laura
TTITLE13=Tommy Dorsey and his Orchestra - Boogie Woogie
TTITLE14=Dinah shore - Candy
TTITLE15=The mills brothers - I wish
TTITLE16=Spike Jones - Leave the dishes in the sink ma
TTITLE17=Frank Sinatra - Saturday night is the loneliest night of the week
TTITLE18=Ella Fitzgerald and the song spinners - And her tears flowed like wine
TTITLE19=Bing crosby with Bob Hope - The road to Morocco
EXTD=
EXTT0=
EXTT1=
EXTT2=
EXTT3=
EXTT4=
EXTT5=
EXTT6=
EXTT7=
EXTT8=
EXTT9=
EXTT10=
EXTT11=
EXTT12=
EXTT13=
EXTT14=
EXTT15=
EXTT16=
EXTT17=
EXTT18=
EXTT19=
PLAYORDER=
